<svg xmlns="http://www.w3.org/2000/svg" xmlns:xlink="http://www.w3.org/1999/xlink" preserveAspectRatio="xMidYMid" width="40" height="45" viewBox="0 0 40 45">
  <defs>
    <style>
      .cls-1 {
        fill-rule: evenodd;
      }
    </style>
  </defs>
  <path stroke="red" d="M23.668,8.409 C22.890,8.606 22.140,9.196 21.418,10.179 C20.585,11.275 20.168,12.456 20.168,13.720 C20.168,15.660 20.945,17.261 22.501,18.526 C23.946,19.706 25.669,20.297 27.669,20.297 C30.030,20.297 32.010,19.419 33.607,17.662 C35.205,15.906 36.004,13.749 36.004,11.191 C36.004,8.156 34.642,5.655 31.920,3.688 C29.419,1.889 26.502,0.990 23.168,0.990 C17.361,0.990 12.381,3.161 8.228,7.503 C4.075,11.845 1.998,16.924 1.998,22.742 C1.998,29.402 3.832,34.629 7.499,38.423 C11.083,42.133 15.917,43.987 22.001,43.987 C26.141,43.987 29.780,42.695 32.920,40.109 C35.198,38.227 36.781,36.147 37.671,33.870 C37.893,33.309 38.004,32.831 38.004,32.437 " class="cls-1"/>
</svg>
