<svg xmlns="http://www.w3.org/2000/svg" xmlns:xlink="http://www.w3.org/1999/xlink" preserveAspectRatio="xMidYMid" width="40" height="45" viewBox="0 0 40 45">
  <defs>
    <style>
      .cls-1 {
        fill: #fff;
        fill-rule: evenodd;
      }
    </style>
  </defs>
  <path d="M37.650,31.910 C37.413,31.840 37.226,31.847 37.087,31.931 C36.920,32.044 36.726,32.255 36.504,32.564 C36.198,32.985 36.031,33.224 36.004,33.280 C34.003,35.613 32.051,37.208 30.149,38.065 C28.245,38.922 25.863,39.350 23.002,39.350 C18.445,39.350 14.625,37.622 11.541,34.165 C8.568,30.821 7.082,26.788 7.082,22.067 C7.082,16.644 8.534,12.126 11.437,8.514 C14.340,4.903 18.139,3.097 22.835,3.097 C25.307,3.097 27.461,3.660 29.294,4.784 C31.322,6.021 32.336,7.707 32.336,9.842 C32.336,11.304 31.933,12.526 31.128,13.510 C30.322,14.494 29.253,14.985 27.919,14.985 C26.946,14.985 26.092,14.753 25.356,14.289 C24.620,13.826 24.168,13.159 24.002,12.287 C23.974,12.119 23.960,11.880 23.960,11.571 C23.960,11.121 24.043,10.615 24.210,10.053 C24.265,9.800 24.362,9.477 24.502,9.083 C24.585,8.859 24.543,8.662 24.377,8.493 C24.210,8.325 23.974,8.297 23.668,8.409 C22.890,8.606 22.140,9.196 21.418,10.179 C20.585,11.275 20.168,12.456 20.168,13.720 C20.168,15.660 20.945,17.261 22.501,18.526 C23.946,19.706 25.669,20.297 27.669,20.297 C30.030,20.297 32.010,19.419 33.607,17.662 C35.205,15.906 36.004,13.749 36.004,11.191 C36.004,8.156 34.642,5.655 31.920,3.688 C29.419,1.889 26.502,0.990 23.168,0.990 C17.361,0.990 12.381,3.161 8.228,7.503 C4.075,11.845 1.998,16.924 1.998,22.742 C1.998,29.402 3.832,34.629 7.499,38.423 C11.083,42.133 15.917,43.987 22.001,43.987 C26.141,43.987 29.780,42.695 32.920,40.109 C35.198,38.227 36.781,36.147 37.671,33.870 C37.893,33.309 38.004,32.831 38.004,32.437 C38.004,32.157 37.885,31.981 37.650,31.910 Z" class="cls-1"/>
</svg>
